# File produced by Open Asset Import Library (http://www.assimp.sf.net)
# (assimp v5.4.0)

mtllib book_shelf.mtl

# 264 vertex positions
v -0.239999995 -0.119999997 0.0199999996
v 0.239999995 -0.119999997 0.0199999996
v 0.239999995 0.119999997 0.0199999996
v -0.239999995 0.119999997 0.0199999996
v -0.239999995 -0.119999997 0
v -0.239999995 0.119999997 0
v 0.239999995 0.119999997 0
v 0.239999995 -0.119999997 0
v -0.239999995 0.119999997 0
v -0.239999995 0.119999997 0.0199999996
v 0.239999995 0.119999997 0.0199999996
v 0.239999995 0.119999997 0
v -0.239999995 -0.119999997 0
v 0.239999995 -0.119999997 0
v 0.239999995 -0.119999997 0.0199999996
v -0.239999995 -0.119999997 0.0199999996
v -0.239999995 -0.119999997 0
v -0.239999995 -0.119999997 0.0199999996
v -0.239999995 0.119999997 0.0199999996
v -0.239999995 0.119999997 0
v 0.239999995 -0.119999997 0
v 0.239999995 0.119999997 0
v 0.239999995 0.119999997 0.0199999996
v 0.239999995 -0.119999997 0.0199999996
v 0.219999999 -0.109999999 0.174999997
v 0.229999989 -0.109999999 0.174999997
v 0.229999989 -0.0799999982 0.174999997
v 0.219999999 -0.0799999982 0.174999997
v 0.219999999 -0.109999999 0.0199999958
v 0.219999999 -0.0799999982 0.0199999958
v 0.229999989 -0.0799999982 0.0199999958
v 0.229999989 -0.109999999 0.0199999958
v 0.219999999 -0.0799999982 0.0199999958
v 0.219999999 -0.0799999982 0.174999997
v 0.229999989 -0.0799999982 0.174999997
v 0.229999989 -0.0799999982 0.0199999958
v 0.219999999 -0.109999999 0.0199999958
v 0.229999989 -0.109999999 0.0199999958
v 0.229999989 -0.109999999 0.174999997
v 0.219999999 -0.109999999 0.174999997
v 0.219999999 -0.109999999 0.0199999958
v 0.219999999 -0.109999999 0.174999997
v 0.219999999 -0.0799999982 0.174999997
v 0.219999999 -0.0799999982 0.0199999958
v 0.229999989 -0.109999999 0.0199999958
v 0.229999989 -0.0799999982 0.0199999958
v 0.229999989 -0.0799999982 0.174999997
v 0.229999989 -0.109999999 0.174999997
v -0.239999995 -0.119999997 0.195000008
v 0.239999995 -0.119999997 0.195000008
v 0.239999995 0.119999997 0.195000008
v -0.239999995 0.119999997 0.195000008
v -0.239999995 -0.119999997 0.174999997
v -0.239999995 0.119999997 0.174999997
v 0.239999995 0.119999997 0.174999997
v 0.239999995 -0.119999997 0.174999997
v -0.239999995 0.119999997 0.174999997
v -0.239999995 0.119999997 0.195000008
v 0.239999995 0.119999997 0.195000008
v 0.239999995 0.119999997 0.174999997
v -0.239999995 -0.119999997 0.174999997
v 0.239999995 -0.119999997 0.174999997
v 0.239999995 -0.119999997 0.195000008
v -0.239999995 -0.119999997 0.195000008
v -0.239999995 -0.119999997 0.174999997
v -0.239999995 -0.119999997 0.195000008
v -0.239999995 0.119999997 0.195000008
v -0.239999995 0.119999997 0.174999997
v 0.239999995 -0.119999997 0.174999997
v 0.239999995 0.119999997 0.174999997
v 0.239999995 0.119999997 0.195000008
v 0.239999995 -0.119999997 0.195000008
v -0.239999995 -0.119999997 0.370000005
v 0.239999995 -0.119999997 0.370000005
v 0.239999995 0.119999997 0.370000005
v -0.239999995 0.119999997 0.370000005
v -0.239999995 -0.119999997 0.350000024
v -0.239999995 0.119999997 0.350000024
v 0.239999995 0.119999997 0.350000024
v 0.239999995 -0.119999997 0.350000024
v -0.239999995 0.119999997 0.350000024
v -0.239999995 0.119999997 0.370000005
v 0.239999995 0.119999997 0.370000005
v 0.239999995 0.119999997 0.350000024
v -0.239999995 -0.119999997 0.350000024
v 0.239999995 -0.119999997 0.350000024
v 0.239999995 -0.119999997 0.370000005
v -0.239999995 -0.119999997 0.370000005
v -0.239999995 -0.119999997 0.350000024
v -0.239999995 -0.119999997 0.370000005
v -0.239999995 0.119999997 0.370000005
v -0.239999995 0.119999997 0.350000024
v 0.239999995 -0.119999997 0.350000024
v 0.239999995 0.119999997 0.350000024
v 0.239999995 0.119999997 0.370000005
v 0.239999995 -0.119999997 0.370000005
v 0.219999999 -0.109999999 0.350000024
v 0.229999989 -0.109999999 0.350000024
v 0.229999989 -0.0799999982 0.350000024
v 0.219999999 -0.0799999982 0.350000024
v 0.219999999 -0.109999999 0.195000008
v 0.219999999 -0.0799999982 0.195000008
v 0.229999989 -0.0799999982 0.195000008
v 0.229999989 -0.109999999 0.195000008
v 0.219999999 -0.0799999982 0.195000008
v 0.219999999 -0.0799999982 0.350000024
v 0.229999989 -0.0799999982 0.350000024
v 0.229999989 -0.0799999982 0.195000008
v 0.219999999 -0.109999999 0.195000008
v 0.229999989 -0.109999999 0.195000008
v 0.229999989 -0.109999999 0.350000024
v 0.219999999 -0.109999999 0.350000024
v 0.219999999 -0.109999999 0.195000008
v 0.219999999 -0.109999999 0.350000024
v 0.219999999 -0.0799999982 0.350000024
v 0.219999999 -0.0799999982 0.195000008
v 0.229999989 -0.109999999 0.195000008
v 0.229999989 -0.0799999982 0.195000008
v 0.229999989 -0.0799999982 0.350000024
v 0.229999989 -0.109999999 0.350000024
v 0.219999999 0.0799999982 0.350000024
v 0.229999989 0.0799999982 0.350000024
v 0.229999989 0.109999999 0.350000024
v 0.219999999 0.109999999 0.350000024
v 0.219999999 0.0799999982 0.195000008
v 0.219999999 0.109999999 0.195000008
v 0.229999989 0.109999999 0.195000008
v 0.229999989 0.0799999982 0.195000008
v 0.219999999 0.109999999 0.195000008
v 0.219999999 0.109999999 0.350000024
v 0.229999989 0.109999999 0.350000024
v 0.229999989 0.109999999 0.195000008
v 0.219999999 0.0799999982 0.195000008
v 0.229999989 0.0799999982 0.195000008
v 0.229999989 0.0799999982 0.350000024
v 0.219999999 0.0799999982 0.350000024
v 0.219999999 0.0799999982 0.195000008
v 0.219999999 0.0799999982 0.350000024
v 0.219999999 0.109999999 0.350000024
v 0.219999999 0.109999999 0.195000008
v 0.229999989 0.0799999982 0.195000008
v 0.229999989 0.109999999 0.195000008
v 0.229999989 0.109999999 0.350000024
v 0.229999989 0.0799999982 0.350000024
v -0.229999989 -0.109999999 0.350000024
v -0.219999999 -0.109999999 0.350000024
v -0.219999999 -0.0799999982 0.350000024
v -0.229999989 -0.0799999982 0.350000024
v -0.229999989 -0.109999999 0.195000008
v -0.229999989 -0.0799999982 0.195000008
v -0.219999999 -0.0799999982 0.195000008
v -0.219999999 -0.109999999 0.195000008
v -0.229999989 -0.0799999982 0.195000008
v -0.229999989 -0.0799999982 0.350000024
v -0.219999999 -0.0799999982 0.350000024
v -0.219999999 -0.0799999982 0.195000008
v -0.229999989 -0.109999999 0.195000008
v -0.219999999 -0.109999999 0.195000008
v -0.219999999 -0.109999999 0.350000024
v -0.229999989 -0.109999999 0.350000024
v -0.229999989 -0.109999999 0.195000008
v -0.229999989 -0.109999999 0.350000024
v -0.229999989 -0.0799999982 0.350000024
v -0.229999989 -0.0799999982 0.195000008
v -0.219999999 -0.109999999 0.195000008
v -0.219999999 -0.0799999982 0.195000008
v -0.219999999 -0.0799999982 0.350000024
v -0.219999999 -0.109999999 0.350000024
v -0.229999989 0.0799999982 0.350000024
v -0.219999999 0.0799999982 0.350000024
v -0.219999999 0.109999999 0.350000024
v -0.229999989 0.109999999 0.350000024
v -0.229999989 0.0799999982 0.195000008
v -0.229999989 0.109999999 0.195000008
v -0.219999999 0.109999999 0.195000008
v -0.219999999 0.0799999982 0.195000008
v -0.229999989 0.109999999 0.195000008
v -0.229999989 0.109999999 0.350000024
v -0.219999999 0.109999999 0.350000024
v -0.219999999 0.109999999 0.195000008
v -0.229999989 0.0799999982 0.195000008
v -0.219999999 0.0799999982 0.195000008
v -0.219999999 0.0799999982 0.350000024
v -0.229999989 0.0799999982 0.350000024
v -0.229999989 0.0799999982 0.195000008
v -0.229999989 0.0799999982 0.350000024
v -0.229999989 0.109999999 0.350000024
v -0.229999989 0.109999999 0.195000008
v -0.219999999 0.0799999982 0.195000008
v -0.219999999 0.109999999 0.195000008
v -0.219999999 0.109999999 0.350000024
v -0.219999999 0.0799999982 0.350000024
v -0.229999989 0.0799999982 0.174999997
v -0.219999999 0.0799999982 0.174999997
v -0.219999999 0.109999999 0.174999997
v -0.229999989 0.109999999 0.174999997
v -0.229999989 0.0799999982 0.0199999958
v -0.229999989 0.109999999 0.0199999958
v -0.219999999 0.109999999 0.0199999958
v -0.219999999 0.0799999982 0.0199999958
v -0.229999989 0.109999999 0.0199999958
v -0.229999989 0.109999999 0.174999997
v -0.219999999 0.109999999 0.174999997
v -0.219999999 0.109999999 0.0199999958
v -0.229999989 0.0799999982 0.0199999958
v -0.219999999 0.0799999982 0.0199999958
v -0.219999999 0.0799999982 0.174999997
v -0.229999989 0.0799999982 0.174999997
v -0.229999989 0.0799999982 0.0199999958
v -0.229999989 0.0799999982 0.174999997
v -0.229999989 0.109999999 0.174999997
v -0.229999989 0.109999999 0.0199999958
v -0.219999999 0.0799999982 0.0199999958
v -0.219999999 0.109999999 0.0199999958
v -0.219999999 0.109999999 0.174999997
v -0.219999999 0.0799999982 0.174999997
v -0.229999989 -0.109999999 0.174999997
v -0.219999999 -0.109999999 0.174999997
v -0.219999999 -0.0799999982 0.174999997
v -0.229999989 -0.0799999982 0.174999997
v -0.229999989 -0.109999999 0.0199999958
v -0.229999989 -0.0799999982 0.0199999958
v -0.219999999 -0.0799999982 0.0199999958
v -0.219999999 -0.109999999 0.0199999958
v -0.229999989 -0.0799999982 0.0199999958
v -0.229999989 -0.0799999982 0.174999997
v -0.219999999 -0.0799999982 0.174999997
v -0.219999999 -0.0799999982 0.0199999958
v -0.229999989 -0.109999999 0.0199999958
v -0.219999999 -0.109999999 0.0199999958
v -0.219999999 -0.109999999 0.174999997
v -0.229999989 -0.109999999 0.174999997
v -0.229999989 -0.109999999 0.0199999958
v -0.229999989 -0.109999999 0.174999997
v -0.229999989 -0.0799999982 0.174999997
v -0.229999989 -0.0799999982 0.0199999958
v -0.219999999 -0.109999999 0.0199999958
v -0.219999999 -0.0799999982 0.0199999958
v -0.219999999 -0.0799999982 0.174999997
v -0.219999999 -0.109999999 0.174999997
v 0.219999999 0.0799999982 0.174999997
v 0.229999989 0.0799999982 0.174999997
v 0.229999989 0.109999999 0.174999997
v 0.219999999 0.109999999 0.174999997
v 0.219999999 0.0799999982 0.0199999958
v 0.219999999 0.109999999 0.0199999958
v 0.229999989 0.109999999 0.0199999958
v 0.229999989 0.0799999982 0.0199999958
v 0.219999999 0.109999999 0.0199999958
v 0.219999999 0.109999999 0.174999997
v 0.229999989 0.109999999 0.174999997
v 0.229999989 0.109999999 0.0199999958
v 0.219999999 0.0799999982 0.0199999958
v 0.229999989 0.0799999982 0.0199999958
v 0.229999989 0.0799999982 0.174999997
v 0.219999999 0.0799999982 0.174999997
v 0.219999999 0.0799999982 0.0199999958
v 0.219999999 0.0799999982 0.174999997
v 0.219999999 0.109999999 0.174999997
v 0.219999999 0.109999999 0.0199999958
v 0.229999989 0.0799999982 0.0199999958
v 0.229999989 0.109999999 0.0199999958
v 0.229999989 0.109999999 0.174999997
v 0.229999989 0.0799999982 0.174999997

# 4 UV coordinates
vt 0 0 1
vt 1 0 1
vt 1 1 1
vt 0 1 1

# 12 vertex normals
vn 0 0 0.0199999996
vn 0 0 -0.0199999996
vn 0 0.239999995 0
vn 0 -0.239999995 0
vn -0.479999989 0 0
vn 0.479999989 0 0
vn 0 0 0.155000001
vn 0 0 -0.155000001
vn 0 0.0299999993 0
vn 0 -0.0299999993 0
vn -0.00999999978 0 0
vn 0.00999999978 0 0

# Mesh 'Cube' with 6 faces
g Cube
usemtl wood
f  1/1/1 2/2/1 3/3/1 4/4/1
f  5/2/2 6/3/2 7/4/2 8/1/2
f  9/4/3 10/1/3 11/2/3 12/3/3
f  13/1/4 14/2/4 15/3/4 16/4/4
f  17/1/5 18/2/5 19/3/5 20/4/5
f  21/2/6 22/3/6 23/4/6 24/1/6

# Mesh 'Cube_01' with 6 faces
g Cube_01
usemtl wood
f  25/1/7 26/2/7 27/3/7 28/4/7
f  29/2/8 30/3/8 31/4/8 32/1/8
f  33/4/9 34/1/9 35/2/9 36/3/9
f  37/1/10 38/2/10 39/3/10 40/4/10
f  41/1/11 42/2/11 43/3/11 44/4/11
f  45/2/12 46/3/12 47/4/12 48/1/12

# Mesh 'Cube_02' with 6 faces
g Cube_02
usemtl wood
f  49/1/1 50/2/1 51/3/1 52/4/1
f  53/2/2 54/3/2 55/4/2 56/1/2
f  57/4/3 58/1/3 59/2/3 60/3/3
f  61/1/4 62/2/4 63/3/4 64/4/4
f  65/1/5 66/2/5 67/3/5 68/4/5
f  69/2/6 70/3/6 71/4/6 72/1/6

# Mesh 'Cube_03' with 6 faces
g Cube_03
usemtl wood
f  73/1/1 74/2/1 75/3/1 76/4/1
f  77/2/2 78/3/2 79/4/2 80/1/2
f  81/4/3 82/1/3 83/2/3 84/3/3
f  85/1/4 86/2/4 87/3/4 88/4/4
f  89/1/5 90/2/5 91/3/5 92/4/5
f  93/2/6 94/3/6 95/4/6 96/1/6

# Mesh 'Cube_04' with 6 faces
g Cube_04
usemtl wood
f  97/1/7 98/2/7 99/3/7 100/4/7
f  101/2/8 102/3/8 103/4/8 104/1/8
f  105/4/9 106/1/9 107/2/9 108/3/9
f  109/1/10 110/2/10 111/3/10 112/4/10
f  113/1/11 114/2/11 115/3/11 116/4/11
f  117/2/12 118/3/12 119/4/12 120/1/12

# Mesh 'Cube_05' with 6 faces
g Cube_05
usemtl wood
f  121/1/7 122/2/7 123/3/7 124/4/7
f  125/2/8 126/3/8 127/4/8 128/1/8
f  129/4/9 130/1/9 131/2/9 132/3/9
f  133/1/10 134/2/10 135/3/10 136/4/10
f  137/1/11 138/2/11 139/3/11 140/4/11
f  141/2/12 142/3/12 143/4/12 144/1/12

# Mesh 'Cube_06' with 6 faces
g Cube_06
usemtl wood
f  145/1/7 146/2/7 147/3/7 148/4/7
f  149/2/8 150/3/8 151/4/8 152/1/8
f  153/4/9 154/1/9 155/2/9 156/3/9
f  157/1/10 158/2/10 159/3/10 160/4/10
f  161/1/11 162/2/11 163/3/11 164/4/11
f  165/2/12 166/3/12 167/4/12 168/1/12

# Mesh 'Cube_07' with 6 faces
g Cube_07
usemtl wood
f  169/1/7 170/2/7 171/3/7 172/4/7
f  173/2/8 174/3/8 175/4/8 176/1/8
f  177/4/9 178/1/9 179/2/9 180/3/9
f  181/1/10 182/2/10 183/3/10 184/4/10
f  185/1/11 186/2/11 187/3/11 188/4/11
f  189/2/12 190/3/12 191/4/12 192/1/12

# Mesh 'Cube_08' with 6 faces
g Cube_08
usemtl wood
f  193/1/7 194/2/7 195/3/7 196/4/7
f  197/2/8 198/3/8 199/4/8 200/1/8
f  201/4/9 202/1/9 203/2/9 204/3/9
f  205/1/10 206/2/10 207/3/10 208/4/10
f  209/1/11 210/2/11 211/3/11 212/4/11
f  213/2/12 214/3/12 215/4/12 216/1/12

# Mesh 'Cube_09' with 6 faces
g Cube_09
usemtl wood
f  217/1/7 218/2/7 219/3/7 220/4/7
f  221/2/8 222/3/8 223/4/8 224/1/8
f  225/4/9 226/1/9 227/2/9 228/3/9
f  229/1/10 230/2/10 231/3/10 232/4/10
f  233/1/11 234/2/11 235/3/11 236/4/11
f  237/2/12 238/3/12 239/4/12 240/1/12

# Mesh 'Cube_10' with 6 faces
g Cube_10
usemtl wood
f  241/1/7 242/2/7 243/3/7 244/4/7
f  245/2/8 246/3/8 247/4/8 248/1/8
f  249/4/9 250/1/9 251/2/9 252/3/9
f  253/1/10 254/2/10 255/3/10 256/4/10
f  257/1/11 258/2/11 259/3/11 260/4/11
f  261/2/12 262/3/12 263/4/12 264/1/12

