# File produced by Open Asset Import Library (http://www.assimp.sf.net)
# (assimp v5.4.0)

mtllib groundflour.mtl

# 24 vertex positions
v -1.25 -0.75 0.0250000004
v 1.25 -0.75 0.0250000004
v 1.25 0.75 0.0250000004
v -1.25 0.75 0.0250000004
v -1.25 -0.75 -0.0250000004
v -1.25 0.75 -0.0250000004
v 1.25 0.75 -0.0250000004
v 1.25 -0.75 -0.0250000004
v -1.25 0.75 -0.0250000004
v -1.25 0.75 0.0250000004
v 1.25 0.75 0.0250000004
v 1.25 0.75 -0.0250000004
v -1.25 -0.75 -0.0250000004
v 1.25 -0.75 -0.0250000004
v 1.25 -0.75 0.0250000004
v -1.25 -0.75 0.0250000004
v -1.25 -0.75 -0.0250000004
v -1.25 -0.75 0.0250000004
v -1.25 0.75 0.0250000004
v -1.25 0.75 -0.0250000004
v 1.25 -0.75 -0.0250000004
v 1.25 0.75 -0.0250000004
v 1.25 0.75 0.0250000004
v 1.25 -0.75 0.0250000004

# 4 UV coordinates
vt 0 0 1
vt 1 0 1
vt 1 1 1
vt 0 1 1

# 6 vertex normals
vn 0 0 0.0500000007
vn 0 0 -0.0500000007
vn 0 1.5 0
vn 0 -1.5 0
vn -2.5 0 0
vn 2.5 0 0

# Mesh 'Cube' with 6 faces
g Cube
usemtl Flour
f  1/1/1 2/2/1 3/3/1 4/4/1
f  5/2/2 6/3/2 7/4/2 8/1/2
f  9/4/3 10/1/3 11/2/3 12/3/3
f  13/1/4 14/2/4 15/3/4 16/4/4
f  17/1/5 18/2/5 19/3/5 20/4/5
f  21/2/6 22/3/6 23/4/6 24/1/6

