# File produced by Open Asset Import Library (http://www.assimp.sf.net)
# (assimp v5.4.0)

mtllib tea_table.mtl

# 72 vertex positions
v 0.125 -0.150000006 0.100000001
v 0.175000012 -0.150000006 0.100000001
v 0.175000012 0.150000006 0.100000001
v 0.125 0.150000006 0.100000001
v 0.125 -0.150000006 0
v 0.125 0.150000006 0
v 0.175000012 0.150000006 0
v 0.175000012 -0.150000006 0
v 0.125 0.150000006 0
v 0.125 0.150000006 0.100000001
v 0.175000012 0.150000006 0.100000001
v 0.175000012 0.150000006 0
v 0.125 -0.150000006 0
v 0.175000012 -0.150000006 0
v 0.175000012 -0.150000006 0.100000001
v 0.125 -0.150000006 0.100000001
v 0.125 -0.150000006 0
v 0.125 -0.150000006 0.100000001
v 0.125 0.150000006 0.100000001
v 0.125 0.150000006 0
v 0.175000012 -0.150000006 0
v 0.175000012 0.150000006 0
v 0.175000012 0.150000006 0.100000001
v 0.175000012 -0.150000006 0.100000001
v -0.175000012 -0.150000006 0.100000001
v -0.125 -0.150000006 0.100000001
v -0.125 0.150000006 0.100000001
v -0.175000012 0.150000006 0.100000001
v -0.175000012 -0.150000006 0
v -0.175000012 0.150000006 0
v -0.125 0.150000006 0
v -0.125 -0.150000006 0
v -0.175000012 0.150000006 0
v -0.175000012 0.150000006 0.100000001
v -0.125 0.150000006 0.100000001
v -0.125 0.150000006 0
v -0.175000012 -0.150000006 0
v -0.125 -0.150000006 0
v -0.125 -0.150000006 0.100000001
v -0.175000012 -0.150000006 0.100000001
v -0.175000012 -0.150000006 0
v -0.175000012 -0.150000006 0.100000001
v -0.175000012 0.150000006 0.100000001
v -0.175000012 0.150000006 0
v -0.125 -0.150000006 0
v -0.125 0.150000006 0
v -0.125 0.150000006 0.100000001
v -0.125 -0.150000006 0.100000001
v -0.200000003 -0.150000006 0.150000006
v 0.200000003 -0.150000006 0.150000006
v 0.200000003 0.150000006 0.150000006
v -0.200000003 0.150000006 0.150000006
v -0.200000003 -0.150000006 0.100000001
v -0.200000003 0.150000006 0.100000001
v 0.200000003 0.150000006 0.100000001
v 0.200000003 -0.150000006 0.100000001
v -0.200000003 0.150000006 0.100000001
v -0.200000003 0.150000006 0.150000006
v 0.200000003 0.150000006 0.150000006
v 0.200000003 0.150000006 0.100000001
v -0.200000003 -0.150000006 0.100000001
v 0.200000003 -0.150000006 0.100000001
v 0.200000003 -0.150000006 0.150000006
v -0.200000003 -0.150000006 0.150000006
v -0.200000003 -0.150000006 0.100000001
v -0.200000003 -0.150000006 0.150000006
v -0.200000003 0.150000006 0.150000006
v -0.200000003 0.150000006 0.100000001
v 0.200000003 -0.150000006 0.100000001
v 0.200000003 0.150000006 0.100000001
v 0.200000003 0.150000006 0.150000006
v 0.200000003 -0.150000006 0.150000006

# 4 UV coordinates
vt 0 0 1
vt 1 0 1
vt 1 1 1
vt 0 1 1

# 10 vertex normals
vn 0 0 0.100000001
vn 0 0 -0.100000001
vn 0 0.300000012 0
vn 0 -0.300000012 0
vn -0.0500000007 0 0
vn 0.0500000007 0 0
vn 0 0 0.0500000007
vn 0 0 -0.0500000007
vn -0.400000006 0 0
vn 0.400000006 0 0

# Mesh 'leg_01' with 6 faces
g leg_01
usemtl darkwood
f  1/1/1 2/2/1 3/3/1 4/4/1
f  5/2/2 6/3/2 7/4/2 8/1/2
f  9/4/3 10/1/3 11/2/3 12/3/3
f  13/1/4 14/2/4 15/3/4 16/4/4
f  17/1/5 18/2/5 19/3/5 20/4/5
f  21/2/6 22/3/6 23/4/6 24/1/6

# Mesh 'leg_02' with 6 faces
g leg_02
usemtl darkwood
f  25/1/1 26/2/1 27/3/1 28/4/1
f  29/2/2 30/3/2 31/4/2 32/1/2
f  33/4/3 34/1/3 35/2/3 36/3/3
f  37/1/4 38/2/4 39/3/4 40/4/4
f  41/1/5 42/2/5 43/3/5 44/4/5
f  45/2/6 46/3/6 47/4/6 48/1/6

# Mesh 'surface' with 6 faces
g surface
usemtl darkwood
f  49/1/7 50/2/7 51/3/7 52/4/7
f  53/2/8 54/3/8 55/4/8 56/1/8
f  57/4/3 58/1/3 59/2/3 60/3/3
f  61/1/4 62/2/4 63/3/4 64/4/4
f  65/1/9 66/2/9 67/3/9 68/4/9
f  69/2/10 70/3/10 71/4/10 72/1/10

