# File produced by Open Asset Import Library (http://www.assimp.sf.net)
# (assimp v5.4.0)

mtllib tool_book.mtl

# 144 vertex positions
v -0.0350000001 -0.0350000001 0.035050001
v 0.0350000001 -0.0350000001 0.035050001
v 0.0350000001 0.0350000001 0.035050001
v -0.0350000001 0.0350000001 0.035050001
v -0.0350000001 -0.0350000001 0.0349499993
v -0.0350000001 0.0350000001 0.0349499993
v 0.0350000001 0.0350000001 0.0349499993
v 0.0350000001 -0.0350000001 0.0349499993
v -0.0350000001 0.0350000001 0.0349499993
v -0.0350000001 0.0350000001 0.035050001
v 0.0350000001 0.0350000001 0.035050001
v 0.0350000001 0.0350000001 0.0349499993
v -0.0350000001 -0.0350000001 0.0349499993
v 0.0350000001 -0.0350000001 0.0349499993
v 0.0350000001 -0.0350000001 0.035050001
v -0.0350000001 -0.0350000001 0.035050001
v -0.0350000001 -0.0350000001 0.0349499993
v -0.0350000001 -0.0350000001 0.035050001
v -0.0350000001 0.0350000001 0.035050001
v -0.0350000001 0.0350000001 0.0349499993
v 0.0350000001 -0.0350000001 0.0349499993
v 0.0350000001 0.0350000001 0.0349499993
v 0.0350000001 0.0350000001 0.035050001
v 0.0350000001 -0.0350000001 0.035050001
v -0.0350000001 0.0350000001 -0.035050001
v 0.0350000001 0.0350000001 -0.035050001
v 0.0350000001 -0.0350000001 -0.035050001
v -0.0350000001 -0.0350000001 -0.035050001
v -0.0350000001 0.0350000001 -0.0349499993
v -0.0350000001 -0.0350000001 -0.0349499993
v 0.0350000001 -0.0350000001 -0.0349499993
v 0.0350000001 0.0350000001 -0.0349499993
v -0.0350000001 -0.0350000001 -0.0349499993
v -0.0350000001 -0.0350000001 -0.035050001
v 0.0350000001 -0.0350000001 -0.035050001
v 0.0350000001 -0.0350000001 -0.0349499993
v -0.0350000001 0.0350000001 -0.0349499993
v 0.0350000001 0.0350000001 -0.0349499993
v 0.0350000001 0.0350000001 -0.035050001
v -0.0350000001 0.0350000001 -0.035050001
v -0.0350000001 0.0350000001 -0.0349499993
v -0.0350000001 0.0350000001 -0.035050001
v -0.0350000001 -0.0350000001 -0.035050001
v -0.0350000001 -0.0350000001 -0.0349499993
v 0.0350000001 0.0350000001 -0.0349499993
v 0.0350000001 -0.0350000001 -0.0349499993
v 0.0350000001 -0.0350000001 -0.035050001
v 0.0350000001 0.0350000001 -0.035050001
v -0.0350000001 -0.035050001 -0.0350000001
v 0.0350000001 -0.035050001 -0.0350000001
v 0.0350000001 -0.035050001 0.0350000001
v -0.0350000001 -0.035050001 0.0350000001
v -0.0350000001 -0.0349499993 -0.0350000001
v -0.0350000001 -0.0349499993 0.0350000001
v 0.0350000001 -0.0349499993 0.0350000001
v 0.0350000001 -0.0349499993 -0.0350000001
v -0.0350000001 -0.0349499993 0.0350000001
v -0.0350000001 -0.035050001 0.0350000001
v 0.0350000001 -0.035050001 0.0350000001
v 0.0350000001 -0.0349499993 0.0350000001
v -0.0350000001 -0.0349499993 -0.0350000001
v 0.0350000001 -0.0349499993 -0.0350000001
v 0.0350000001 -0.035050001 -0.0350000001
v -0.0350000001 -0.035050001 -0.0350000001
v -0.0350000001 -0.0349499993 -0.0350000001
v -0.0350000001 -0.035050001 -0.0350000001
v -0.0350000001 -0.035050001 0.0350000001
v -0.0350000001 -0.0349499993 0.0350000001
v 0.0350000001 -0.0349499993 -0.0350000001
v 0.0350000001 -0.0349499993 0.0350000001
v 0.0350000001 -0.035050001 0.0350000001
v 0.0350000001 -0.035050001 -0.0350000001
v 0.035050001 -0.0350000001 -0.0350000001
v 0.035050001 0.0350000001 -0.0350000001
v 0.035050001 0.0350000001 0.0350000001
v 0.035050001 -0.0350000001 0.0350000001
v 0.0349499993 -0.0350000001 -0.0350000001
v 0.0349499993 -0.0350000001 0.0350000001
v 0.0349499993 0.0350000001 0.0350000001
v 0.0349499993 0.0350000001 -0.0350000001
v 0.0349499993 -0.0350000001 0.0350000001
v 0.035050001 -0.0350000001 0.0350000001
v 0.035050001 0.0350000001 0.0350000001
v 0.0349499993 0.0350000001 0.0350000001
v 0.0349499993 -0.0350000001 -0.0350000001
v 0.0349499993 0.0350000001 -0.0350000001
v 0.035050001 0.0350000001 -0.0350000001
v 0.035050001 -0.0350000001 -0.0350000001
v 0.0349499993 -0.0350000001 -0.0350000001
v 0.035050001 -0.0350000001 -0.0350000001
v 0.035050001 -0.0350000001 0.0350000001
v 0.0349499993 -0.0350000001 0.0350000001
v 0.0349499993 0.0350000001 -0.0350000001
v 0.0349499993 0.0350000001 0.0350000001
v 0.035050001 0.0350000001 0.0350000001
v 0.035050001 0.0350000001 -0.0350000001
v -0.035050001 0.0350000001 -0.0350000001
v -0.035050001 -0.0350000001 -0.0350000001
v -0.035050001 -0.0350000001 0.0350000001
v -0.035050001 0.0350000001 0.0350000001
v -0.0349499993 0.0350000001 -0.0350000001
v -0.0349499993 0.0350000001 0.0350000001
v -0.0349499993 -0.0350000001 0.0350000001
v -0.0349499993 -0.0350000001 -0.0350000001
v -0.0349499993 0.0350000001 0.0350000001
v -0.035050001 0.0350000001 0.0350000001
v -0.035050001 -0.0350000001 0.0350000001
v -0.0349499993 -0.0350000001 0.0350000001
v -0.0349499993 0.0350000001 -0.0350000001
v -0.0349499993 -0.0350000001 -0.0350000001
v -0.035050001 -0.0350000001 -0.0350000001
v -0.035050001 0.0350000001 -0.0350000001
v -0.0349499993 0.0350000001 -0.0350000001
v -0.035050001 0.0350000001 -0.0350000001
v -0.035050001 0.0350000001 0.0350000001
v -0.0349499993 0.0350000001 0.0350000001
v -0.0349499993 -0.0350000001 -0.0350000001
v -0.0349499993 -0.0350000001 0.0350000001
v -0.035050001 -0.0350000001 0.0350000001
v -0.035050001 -0.0350000001 -0.0350000001
v 0.0350000001 0.035050001 -0.0350000001
v -0.0350000001 0.035050001 -0.0350000001
v -0.0350000001 0.035050001 0.0350000001
v 0.0350000001 0.035050001 0.0350000001
v 0.0350000001 0.0349499993 -0.0350000001
v 0.0350000001 0.0349499993 0.0350000001
v -0.0350000001 0.0349499993 0.0350000001
v -0.0350000001 0.0349499993 -0.0350000001
v 0.0350000001 0.0349499993 0.0350000001
v 0.0350000001 0.035050001 0.0350000001
v -0.0350000001 0.035050001 0.0350000001
v -0.0350000001 0.0349499993 0.0350000001
v 0.0350000001 0.0349499993 -0.0350000001
v -0.0350000001 0.0349499993 -0.0350000001
v -0.0350000001 0.035050001 -0.0350000001
v 0.0350000001 0.035050001 -0.0350000001
v 0.0350000001 0.0349499993 -0.0350000001
v 0.0350000001 0.035050001 -0.0350000001
v 0.0350000001 0.035050001 0.0350000001
v 0.0350000001 0.0349499993 0.0350000001
v -0.0350000001 0.0349499993 -0.0350000001
v -0.0350000001 0.0349499993 0.0350000001
v -0.0350000001 0.035050001 0.0350000001
v -0.0350000001 0.035050001 -0.0350000001

# 4 UV coordinates
vt 0 0 1
vt 1 0 1
vt 1 1 1
vt 0 1 1

# 32 vertex normals
vn 0 0 9.99999975e-05
vn 0 0 -9.99999975e-05
vn 0 0.0700000003 0
vn 0 -0.0700000003 0
vn -0.0700000003 0 0
vn 0.0700000003 0 0
vn 0 -1.22464679e-20 -9.99999975e-05
vn 0 1.22464679e-20 9.99999975e-05
vn 0 -0.0700000003 8.57252764e-18
vn 0 0.0700000003 -8.57252764e-18
vn 0 -9.99999975e-05 2.22044599e-20
vn 0 9.99999975e-05 -2.22044599e-20
vn 0 1.55431224e-17 0.0700000003
vn 0 -1.55431224e-17 -0.0700000003
vn 9.99999975e-05 4.44089199e-20 -6.66133846e-20
vn -9.99999975e-05 -4.44089199e-20 6.66133846e-20
vn 3.10862448e-17 -3.10862448e-17 0.0700000003
vn -3.10862448e-17 3.10862448e-17 -0.0700000003
vn 4.66293656e-17 -0.0700000003 -1.55431224e-17
vn -4.66293656e-17 0.0700000003 1.55431224e-17
vn -9.99999975e-05 4.44089199e-20 -6.66133846e-20
vn 9.99999975e-05 -4.44089199e-20 6.66133846e-20
vn -3.10862448e-17 -3.10862448e-17 0.0700000003
vn 3.10862448e-17 3.10862448e-17 -0.0700000003
vn 4.66293656e-17 0.0700000003 1.55431224e-17
vn -4.66293656e-17 -0.0700000003 -1.55431224e-17
vn 7.39139757e-21 9.99999975e-05 2.22044599e-20
vn -7.39139757e-21 -9.99999975e-05 -2.22044599e-20
vn -6.94940654e-18 -1.55431224e-17 0.0700000003
vn 6.94940654e-18 1.55431224e-17 -0.0700000003
vn 0.0700000003 -5.17397792e-18 6.94940654e-18
vn -0.0700000003 5.17397792e-18 -6.94940654e-18

# Mesh 'pic_01' with 6 faces
g pic_01
usemtl tool
f  1/1/1 2/2/1 3/3/1 4/4/1
f  5/2/2 6/3/2 7/4/2 8/1/2
f  9/4/3 10/1/3 11/2/3 12/3/3
f  13/1/4 14/2/4 15/3/4 16/4/4
f  17/1/5 18/2/5 19/3/5 20/4/5
f  21/2/6 22/3/6 23/4/6 24/1/6

# Mesh 'pic_02' with 6 faces
g pic_02
usemtl tool
f  25/1/7 26/2/7 27/3/7 28/4/7
f  29/2/8 30/3/8 31/4/8 32/1/8
f  33/4/9 34/1/9 35/2/9 36/3/9
f  37/1/10 38/2/10 39/3/10 40/4/10
f  41/1/5 42/2/5 43/3/5 44/4/5
f  45/2/6 46/3/6 47/4/6 48/1/6

# Mesh 'pic_03' with 6 faces
g pic_03
usemtl tool
f  49/1/11 50/2/11 51/3/11 52/4/11
f  53/2/12 54/3/12 55/4/12 56/1/12
f  57/4/13 58/1/13 59/2/13 60/3/13
f  61/1/14 62/2/14 63/3/14 64/4/14
f  65/1/5 66/2/5 67/3/5 68/4/5
f  69/2/6 70/3/6 71/4/6 72/1/6

# Mesh 'pic_04' with 6 faces
g pic_04
usemtl tool
f  73/1/15 74/2/15 75/3/15 76/4/15
f  77/2/16 78/3/16 79/4/16 80/1/16
f  81/4/17 82/1/17 83/2/17 84/3/17
f  85/1/18 86/2/18 87/3/18 88/4/18
f  89/1/19 90/2/19 91/3/19 92/4/19
f  93/2/20 94/3/20 95/4/20 96/1/20

# Mesh 'pic_05' with 6 faces
g pic_05
usemtl tool
f  97/1/21 98/2/21 99/3/21 100/4/21
f  101/2/22 102/3/22 103/4/22 104/1/22
f  105/4/23 106/1/23 107/2/23 108/3/23
f  109/1/24 110/2/24 111/3/24 112/4/24
f  113/1/25 114/2/25 115/3/25 116/4/25
f  117/2/26 118/3/26 119/4/26 120/1/26

# Mesh 'pic_06' with 6 faces
g pic_06
usemtl tool
f  121/1/27 122/2/27 123/3/27 124/4/27
f  125/2/28 126/3/28 127/4/28 128/1/28
f  129/4/29 130/1/29 131/2/29 132/3/29
f  133/1/30 134/2/30 135/3/30 136/4/30
f  137/1/31 138/2/31 139/3/31 140/4/31
f  141/2/32 142/3/32 143/4/32 144/1/32

